<svg xmlns="http://www.w3.org/2000/svg" viewBox="0 0 512 512" role="img" aria-label="Flujo Pro">
  <defs>
    <linearGradient id="g" x1="64" y1="64" x2="448" y2="448" gradientUnits="userSpaceOnUse">
      <stop offset="0" stop-color="#172839"/>
      <stop offset="1" stop-color="#2d3e50"/>
    </linearGradient>
  </defs>
  <rect width="512" height="512" rx="112" fill="#f7faf9"/>
  <rect x="64" y="64" width="384" height="384" rx="100" fill="url(#g)"/>
  <path d="M154 180h204c26.51 0 48 21.49 48 48v56c0 26.51-21.49 48-48 48H154c-26.51 0-48-21.49-48-48v-56c0-26.51 21.49-48 48-48Z" fill="#f7faf9" opacity=".1"/>
  <path d="M176 210h160c13.255 0 24 10.745 24 24s-10.745 24-24 24H176c-13.255 0-24-10.745-24-24s10.745-24 24-24Zm0 80h112c13.255 0 24 10.745 24 24s-10.745 24-24 24H176c-13.255 0-24-10.745-24-24s10.745-24 24-24Z" fill="#fea520"/>
  <circle cx="352" cy="314" r="30" fill="#cce5ff"/>
  <circle cx="352" cy="314" r="14" fill="#004064"/>
</svg>
